<svg width="17" height="16" viewBox="0 0 17 16" fill="none" xmlns="http://www.w3.org/2000/svg">
<path d="M6.55992 6.00016C6.71665 5.55461 7.02602 5.1789 7.43322 4.93958C7.84042 4.70027 8.31918 4.61279 8.7847 4.69264C9.25022 4.77249 9.67246 5.01451 9.97664 5.37585C10.2808 5.73718 10.4473 6.19451 10.4466 6.66683C10.4466 8.00016 8.44658 8.66683 8.44658 8.66683M8.49992 11.3335H8.50659M15.1666 8.00016C15.1666 11.6821 12.1818 14.6668 8.49992 14.6668C4.81802 14.6668 1.83325 11.6821 1.83325 8.00016C1.83325 4.31826 4.81802 1.3335 8.49992 1.3335C12.1818 1.3335 15.1666 4.31826 15.1666 8.00016Z" stroke="#4FB5FF" stroke-width="1.33333" stroke-linecap="round" stroke-linejoin="round"/>
</svg>
